<svg version="1.1" xmlns="http://www.w3.org/2000/svg" xmlns:xlink="http://www.w3.org/1999/xlink" width="91.75481" height="255.90059" viewBox="0,0,91.75481,255.90059"><g transform="translate(-185.39706,-53.14943)"><g data-paper-data="{&quot;isPaintingLayer&quot;:true}" fill-rule="nonzero" stroke-linejoin="miter" stroke-miterlimit="10" stroke-dasharray="" stroke-dashoffset="0" style="mix-blend-mode: normal"><g data-paper-data="{&quot;origPos&quot;:null,&quot;index&quot;:null}" stroke="none" stroke-width="1" stroke-linecap="butt"><path d="M189.94895,309.05002l7.4,-6.8l9.4,-2.3l14.8,-0.6l0.9,9.7z" fill="#d8d8d8"/><path d="M202.64895,300.75002v-50.1l0.7,-62.3h30l-7.9,62l-3.7,50.4z" fill="#98c1dd"/></g><g data-paper-data="{&quot;index&quot;:null}" stroke="none" stroke-width="1" stroke-linecap="butt"><path d="M227.84895,309.05002l7.4,-6.8l9.4,-2.3l14.8,-0.6l0.9,9.7z" fill="#d8d8d8"/><path d="M241.24895,300.75002l-4.7,-50.6l-8,-61.8h29.1l0.7,60.1l0.5,52.3z" fill="#98c1dd"/></g><g data-paper-data="{&quot;origPos&quot;:null,&quot;index&quot;:null}" stroke="none" stroke-width="1" stroke-linecap="butt"><path d="M191.84895,164.39442c0,0 2.3,-50 14.9,-46.6c7,1.7 -1.1,48.6 -1.1,48.6c0,0 -5.4,1.7 -8.6,1.3c-3.1,-0.4 -5.2,-3.3 -5.2,-3.3z" fill="#ac752d"/><path d="M187.34895,143.29442c0,0 11.5,-31 21.6,-29c11.5,2.2 2.5,35.1 2.5,35.1z" fill="#485963"/></g><g data-paper-data="{&quot;origPos&quot;:null,&quot;index&quot;:null}" fill="#ac752d" stroke="none" stroke-width="1" stroke-linecap="butt"><g data-paper-data="{&quot;origPos&quot;:null}"><path d="M192.04895,163.89442c0,0 4.6,-0.8 7.3,-1c3.6,-0.3 6.7,3.9 6.7,3.9l-8.8,27.1l-8.2,-2.4z" data-paper-data="{&quot;origPos&quot;:null}"/></g><path d="M188.40665,211.21562c0,0 -3.0945,-5.5022 -3.0078,-9.562c0.1446,-4.3542 4.5396,-10.6227 4.5396,-10.6227l7.2768,0.3129c0,0 5.6648,5.9068 4.6028,11.8129c-0.424,2.6684 -2.9591,7.7745 -2.9591,7.7745c0,0 -2.7414,1.4982 -3.2735,0.578c-0.434,-0.9009 1.178,-6.4948 -0.1748,-6.3537c-1.7646,0.1619 -0.994,9.1811 -2.8775,8.9118c-1.824,-0.0537 -4.1265,-2.8517 -4.1265,-2.8517z" data-paper-data="{&quot;origPos&quot;:null,&quot;index&quot;:null,&quot;origRot&quot;:0}"/></g><path d="M231.34895,198.35002c-11.6,0.1 -28.7,-2.7 -28.7,-2.7c0,0 0.7666,-80.0889 3.0666,-81.2889c2.4,-1.3 13.3334,-5.5111 26.3334,-5.3111c13,0.2 28.2,8.1 28.2,8.1l-0.2,76.3c0,0 -16.9,4.7 -28.7,4.9z" data-paper-data="{&quot;origPos&quot;:null,&quot;index&quot;:null}" fill="#536672" stroke="none" stroke-width="1" stroke-linecap="butt"/><g data-paper-data="{&quot;index&quot;:null}" stroke="none" stroke-width="1" stroke-linecap="butt"><path d="M264.04895,168.55002c0,0 -18.4,-51.6 -7.2,-51.3c14.3,-0.3 19.9,50.3 19.9,50.3c0,0 -3.8,2 -6.3,2.2c-2.5,0.2 -6.4,-1.2 -6.4,-1.2z" fill="#ac752d"/><path d="M254.24895,152.55002c0,0 -13.8,-34.4 2.8,-36.2c7,-0.8 19.5,27.5 19.5,27.5z" fill="#485963"/></g><g data-paper-data="{&quot;index&quot;:null}" fill="#ac752d" stroke="none" stroke-width="1" stroke-linecap="butt"><path d="M267.04895,196.15002l-3.2,-27.7c0,0 3.5,-3.9 6.7,-3.3c2.3,0.4 6.3,1.6 6.3,1.6l-2.1,27.7z"/><path d="M267.64895,215.55002c-1.9,-0.1 0.6,-8.8 -1.1,-9.3c-1.3,-0.4 -0.7,5.4 -1.4,6.2c-0.7,0.8 -3.1,-1.2 -3.1,-1.2c0,0 -1.5,-5.5 -1.4,-8.2c0.1,-6 6.8,-10.7 6.8,-10.7l7.2,1.1c0,0 3.1,7 2.4,11.3c-0.7,4 -4.8,8.8 -4.8,8.8c0,0 -2.8,2.3 -4.6,2z"/></g><path d="M230.64895,53.15002c14.3,0 25.8,12.7 25.8,28.3c0,15.6 -2.5,31.3 -16.7,31.3c-14.2,0 -34.8,-15.6 -34.8,-31.3c0,-15.7 11.5,-28.4 25.7,-28.3z" data-paper-data="{&quot;origPos&quot;:null,&quot;index&quot;:null}" fill="#241608" stroke="none" stroke-width="1" stroke-linecap="butt"/><g data-paper-data="{&quot;index&quot;:null}" fill="#9e692c" stroke="none" stroke-width="1" stroke-linecap="butt"><path d="M240.44895,111.05002c0,0 3.5,1.2 2,4.6c-3.9,6.9 -22.7,4.5 -22.8,0c-0.1,-2.8 4.8,-3.7 4.8,-3.7l-0.1,-9.1l15.2,-3.4z" data-paper-data="{&quot;origPos&quot;:null}"/><path d="M248.14895,84.95002c1.3,0.4 1.8,2.7 1,5.1c-0.8,2.4 -2.6,3.9 -4,3.4c-1.3,-0.4 -1.8,-2.7 -1,-5.1c0.8,-2.3 2.6,-3.9 4,-3.4z" data-paper-data="{&quot;origPos&quot;:null}"/><path d="M212.66895,85.85002c-2,-13.7 5.48,-25.8 16.88,-25.2c15,0.7 17.2,10.3 17.2,23.1c0,12.8 -7.6,22.5 -19.4,22.3c-6.8,-0.3 -14.7,-7.1 -14.7,-19.9z" data-paper-data="{&quot;origPos&quot;:null}"/></g><path d="M228.14873,99.63881c-1.78251,-0.25032 -4.02687,-0.08813 -3.96113,-0.55626c0.06574,-0.46813 1.90535,-1.34354 3.68786,-1.09322c1.68348,0.23641 3.54079,1.39229 3.48326,1.80191c-0.05752,0.40962 -1.51829,0.02547 -3.20999,-0.15243z" data-paper-data="{&quot;index&quot;:null}" fill="#000000" stroke="none" stroke-width="1" stroke-linecap="butt"/><path d="M227.24895,93.25002c0,0 -2.5,-1.4 -2.5,-2.1c-0.1,-1.5 2.2,-4.5 2.2,-4.5" data-paper-data="{&quot;index&quot;:null}" fill="none" stroke="#000000" stroke-width="1.46" stroke-linecap="round"/><path d="M229.74895,74.55002c-7.2,-4.4 -14.6,-10.4 -14.6,-10.4c0,0 9.359,-13.4894 25,-5.15c11.2067,5.9752 9.8,26.25 9.8,26.25c0,0 -13,-6.3 -20.2,-10.7z" data-paper-data="{&quot;origPos&quot;:null,&quot;index&quot;:null}" fill="#241608" stroke="none" stroke-width="1" stroke-linecap="butt"/><g data-paper-data="{&quot;index&quot;:null}"><path d="M230.24895,79.65002c0,0 2,-0.9 3.7,-0.8c1.5,0 4.4,0.8 4.4,0.8" fill="none" stroke="#000000" stroke-width="1.46" stroke-linecap="round"/><g><path d="M231.04895,83.75002c0,0 0.4,-1.3 2.9,-1.5c2.3,-0.2 4.5,1.7 4.5,1.7" fill="none" stroke="#000000" stroke-width="1.46" stroke-linecap="round"/><path d="M233.04895,86.95002c-1.2,0 -2.1,-1 -2.1,-2.2c0,-1.2 0.9,-2.2 2.1,-2.2c1.2,0 2.1,1 2.1,2.2c0,1.2 -1,2.2 -2.1,2.2z" fill="#000000" stroke="none" stroke-width="1" stroke-linecap="butt"/></g></g><g data-paper-data="{&quot;index&quot;:null}"><path d="M215.74895,79.25002c0,0 1.7,-0.4 3.2,-0.5c1.7,0 4,0.8 4,0.8" fill="none" stroke="#000000" stroke-width="1.46" stroke-linecap="round"/><g><path d="M215.54895,83.85002c0,0 2.2,-1.9 4.5,-1.7c2.4,0.2 2.9,1.5 2.9,1.5" fill="none" stroke="#000000" stroke-width="1.46" stroke-linecap="round"/><path d="M216.14895,84.45002c0,-1.2 0.9,-2.2 2.1,-2.2c1.2,0 2.1,1 2.1,2.2c0,1.2 -0.9,2.2 -2.1,2.2c-1.1,0 -2.1,-1 -2.1,-2.2z" fill="#000000" stroke="none" stroke-width="1" stroke-linecap="butt"/></g></g><g data-paper-data="{&quot;origPos&quot;:null,&quot;index&quot;:null}" fill="#241608" stroke="none" stroke-width="1" stroke-linecap="butt"><path d="M244.14895,102.45002c3.1,0 5.7,4.5 5.7,10c0,5.5 -2.6,10 -5.7,10c-3.1,0 -5.7,-4.5 -5.7,-10c0,-5.5 2.6,-10 5.7,-10z"/><path d="M245.54895,131.65002c-2.7,0 -4.9,-3.5 -4.9,-7.8c0,-4.3 2.2,-7.8 4.9,-7.8c2.7,0 4.9,3.5 4.9,7.8c0,4.3 -2.2,7.8 -4.9,7.8z"/><path d="M246.14895,140.95002c-2,0 -3.7,-2.7 -3.7,-6c0,-3.3 1.6,-6 3.7,-6c2,0 3.7,2.7 3.7,6c0,3.3 -1.7,6 -3.7,6z"/><path d="M245.94895,147.45002c-1.4,0 -2.6,-1.9 -2.6,-4.1c0,-2.2 1.2,-4.1 2.6,-4.1c1.4,0 2.6,1.8 2.6,4.1c0,2.3 -1.1,4.1 -2.6,4.1z"/><path d="M246.14895,146.25002c1.1,0.1 2.9,2.3 2.7,4.9c-0.2,2.6 -3.7,4.5 -3.7,4.5c0,0 -2.7,-2.3 -2.4,-4.9c0.3,-2.6 2.3,-4.6 3.4,-4.5z"/></g></g></g></svg>