<svg version="1.1" xmlns="http://www.w3.org/2000/svg" xmlns:xlink="http://www.w3.org/1999/xlink" width="89.4" height="255.90059" viewBox="0,0,89.4,255.90059"><g transform="translate(-187.34895,-53.14943)"><g data-paper-data="{&quot;isPaintingLayer&quot;:true}" fill-rule="nonzero" stroke-linejoin="miter" stroke-miterlimit="10" stroke-dasharray="" stroke-dashoffset="0" style="mix-blend-mode: normal"><g data-paper-data="{&quot;origPos&quot;:null,&quot;index&quot;:null}" stroke="none" stroke-width="1" stroke-linecap="butt"><path d="M189.94895,309.05002l7.4,-6.8l9.4,-2.3l14.8,-0.6l0.9,9.7z" fill="#d8d8d8"/><path d="M202.64895,300.75002v-50.1l0.7,-62.3h30l-7.9,62l-3.7,50.4z" fill="#98c1dd"/></g><g data-paper-data="{&quot;index&quot;:null}" stroke="none" stroke-width="1" stroke-linecap="butt"><path d="M227.84895,309.05002l7.4,-6.8l9.4,-2.3l14.8,-0.6l0.9,9.7z" fill="#d8d8d8"/><path d="M241.24895,300.75002l-4.7,-50.6l-8,-61.8h29.1l0.7,60.1l0.5,52.3z" fill="#98c1dd"/></g><g data-paper-data="{&quot;origPos&quot;:null,&quot;index&quot;:null}" stroke="none" stroke-width="1" stroke-linecap="butt"><path d="M191.84895,164.39442c0,0 2.3,-50 14.9,-46.6c7,1.7 -1.1,48.6 -1.1,48.6c0,0 -5.4,1.7 -8.6,1.3c-3.1,-0.4 -5.2,-3.3 -5.2,-3.3z" fill="#ac752d"/><path d="M187.34895,143.29442c0,0 11.5,-31 21.6,-29c11.5,2.2 2.5,35.1 2.5,35.1z" fill="#485963"/></g><path d="M231.34895,198.35002c-11.6,0.1 -28.7,-2.7 -28.7,-2.7c0,0 0.7666,-80.0889 3.0666,-81.2889c2.4,-1.3 13.3334,-5.5111 26.3334,-5.3111c13,0.2 28.2,8.1 28.2,8.1l-0.2,76.3c0,0 -16.9,4.7 -28.7,4.9z" data-paper-data="{&quot;origPos&quot;:null,&quot;index&quot;:null}" fill="#536672" stroke="none" stroke-width="1" stroke-linecap="butt"/><g data-paper-data="{&quot;index&quot;:null}" fill="#ac752d" stroke="none" stroke-width="1" stroke-linecap="butt"><g data-paper-data="{&quot;origPos&quot;:null}"><path d="M191.59343,166.29605c0,0 1.7901,-4.31225 3.06839,-6.69888c1.67624,-3.20003 6.88355,-3.56606 6.88355,-3.56606l18.16214,21.95419l-6.42116,5.63637z" data-paper-data="{&quot;origPos&quot;:null}"/></g><path d="M229.59138,194.73401c0,0 -6.30372,-0.33656 -9.68467,-2.58571c-3.59846,-2.45582 -6.53492,-9.52599 -6.53492,-9.52599l4.16435,-5.97561c0,0 8.02291,-1.61651 12.43983,2.44559c2.0255,1.78815 4.97749,6.66511 4.97749,6.66511c0,0 -0.20449,3.11738 -1.26655,3.07339c-0.99318,-0.11646 -4.85175,-4.47556 -5.45769,-3.25786c-0.8091,1.57651 7.21823,5.76001 5.98137,7.20579c-1.02295,1.5111 -4.6192,1.95529 -4.6192,1.95529z" data-paper-data="{&quot;origPos&quot;:null,&quot;index&quot;:null,&quot;origRot&quot;:0}"/></g><g data-paper-data="{&quot;index&quot;:null}" stroke="none" stroke-width="1" stroke-linecap="butt"><path d="M264.04895,168.55002c0,0 -18.4,-51.6 -7.2,-51.3c14.3,-0.3 19.9,50.3 19.9,50.3c0,0 -3.8,2 -6.3,2.2c-2.5,0.2 -6.4,-1.2 -6.4,-1.2z" fill="#ac752d"/><path d="M254.24895,152.55002c0,0 -13.8,-34.4 2.8,-36.2c7,-0.8 19.5,27.5 19.5,27.5z" fill="#485963"/></g><g data-paper-data="{&quot;index&quot;:null}" fill="#ac752d" stroke="none" stroke-width="1" stroke-linecap="butt"><path d="M248.34773,181.47269l17.29002,-21.87659c0,0 5.23214,-0.291 7.07481,2.39313c1.34648,1.90709 3.33211,5.58095 3.33211,5.58095l-21.04353,18.13477z"/><path d="M235.07619,195.63554c-1.275,-1.41223 6.63775,-5.80863 5.7868,-7.36294c-0.63827,-1.20109 -4.30816,3.33012 -5.36871,3.40249c-1.06055,0.07236 -1.34824,-3.03846 -1.34824,-3.03846c0,0 2.8207,-4.95415 4.79773,-6.79572c4.30684,-4.17865 12.37005,-2.77701 12.37005,-2.77701l4.3225,5.86225c0,0 -2.74658,7.14607 -6.27814,9.69716c-3.31976,2.33863 -9.61223,2.84342 -9.61223,2.84342c0,0 -3.60679,-0.34793 -4.66977,-1.8312z"/></g><path d="M230.64895,53.15002c14.3,0 25.8,12.7 25.8,28.3c0,15.6 -2.5,31.3 -16.7,31.3c-14.2,0 -34.8,-15.6 -34.8,-31.3c0,-15.7 11.5,-28.4 25.7,-28.3z" data-paper-data="{&quot;origPos&quot;:null,&quot;index&quot;:null}" fill="#241608" stroke="none" stroke-width="1" stroke-linecap="butt"/><g data-paper-data="{&quot;index&quot;:null}" fill="#9e6b30" stroke="none" stroke-width="1" stroke-linecap="butt"><path d="M240.44895,111.05002c0,0 3.5,1.2 2,4.6c-3.9,6.9 -22.7,4.5 -22.8,0c-0.1,-2.8 4.8,-3.7 4.8,-3.7l-0.1,-9.1l15.2,-3.4z" data-paper-data="{&quot;origPos&quot;:null}"/><path d="M248.14895,84.95002c1.3,0.4 1.8,2.7 1,5.1c-0.8,2.4 -2.6,3.9 -4,3.4c-1.3,-0.4 -1.8,-2.7 -1,-5.1c0.8,-2.3 2.6,-3.9 4,-3.4z" data-paper-data="{&quot;origPos&quot;:null}"/><path d="M212.66895,85.85002c-2,-13.7 5.48,-25.8 16.88,-25.2c15,0.7 17.2,10.3 17.2,23.1c0,12.8 -7.6,22.5 -19.4,22.3c-6.8,-0.3 -14.7,-7.1 -14.7,-19.9z" data-paper-data="{&quot;origPos&quot;:null}"/></g><path d="M227.44895,98.35002c1.8,0 4,-0.8 4,0c0,0.8 -1.7,2.7 -3.5,2.7c-1.7,0 -3.7,-1.5 -3.7,-2.2c0,-0.7 1.5,-0.4 3.2,-0.5z" data-paper-data="{&quot;index&quot;:null}" fill="#000000" stroke="none" stroke-width="1" stroke-linecap="butt"/><path d="M227.24895,93.25002c0,0 -2.5,-1.4 -2.5,-2.1c-0.1,-1.5 2.2,-4.5 2.2,-4.5" data-paper-data="{&quot;index&quot;:null}" fill="none" stroke="#000000" stroke-width="1.46" stroke-linecap="round"/><path d="M229.74895,74.55002c-7.2,-4.4 -14.6,-10.4 -14.6,-10.4c0,0 9.359,-13.4894 25,-5.15c11.2067,5.9752 9.8,26.25 9.8,26.25c0,0 -13,-6.3 -20.2,-10.7z" data-paper-data="{&quot;origPos&quot;:null,&quot;index&quot;:null}" fill="#241608" stroke="none" stroke-width="1" stroke-linecap="butt"/><g data-paper-data="{&quot;index&quot;:null}"><path d="M230.24895,79.65002c0,0 2,-0.9 3.7,-0.8c1.5,0 4.4,0.8 4.4,0.8" fill="none" stroke="#000000" stroke-width="1.46" stroke-linecap="round"/><g><path d="M231.04895,83.75002c0,0 0.4,-1.3 2.9,-1.5c2.3,-0.2 4.5,1.7 4.5,1.7" fill="none" stroke="#000000" stroke-width="1.46" stroke-linecap="round"/><path d="M233.04895,86.95002c-1.2,0 -2.1,-1 -2.1,-2.2c0,-1.2 0.9,-2.2 2.1,-2.2c1.2,0 2.1,1 2.1,2.2c0,1.2 -1,2.2 -2.1,2.2z" fill="#000000" stroke="none" stroke-width="1" stroke-linecap="butt"/></g></g><g data-paper-data="{&quot;index&quot;:null}"><path d="M215.74895,79.25002c0,0 1.7,-0.4 3.2,-0.5c1.7,0 4,0.8 4,0.8" fill="none" stroke="#000000" stroke-width="1.46" stroke-linecap="round"/><g><path d="M215.54895,83.85002c0,0 2.2,-1.9 4.5,-1.7c2.4,0.2 2.9,1.5 2.9,1.5" fill="none" stroke="#000000" stroke-width="1.46" stroke-linecap="round"/><path d="M216.14895,84.45002c0,-1.2 0.9,-2.2 2.1,-2.2c1.2,0 2.1,1 2.1,2.2c0,1.2 -0.9,2.2 -2.1,2.2c-1.1,0 -2.1,-1 -2.1,-2.2z" fill="#000000" stroke="none" stroke-width="1" stroke-linecap="butt"/></g></g><g data-paper-data="{&quot;origPos&quot;:null,&quot;index&quot;:null}" fill="#241608" stroke="none" stroke-width="1" stroke-linecap="butt"><path d="M244.14895,102.45002c3.1,0 5.7,4.5 5.7,10c0,5.5 -2.6,10 -5.7,10c-3.1,0 -5.7,-4.5 -5.7,-10c0,-5.5 2.6,-10 5.7,-10z"/><path d="M245.54895,131.65002c-2.7,0 -4.9,-3.5 -4.9,-7.8c0,-4.3 2.2,-7.8 4.9,-7.8c2.7,0 4.9,3.5 4.9,7.8c0,4.3 -2.2,7.8 -4.9,7.8z"/><path d="M246.14895,140.95002c-2,0 -3.7,-2.7 -3.7,-6c0,-3.3 1.6,-6 3.7,-6c2,0 3.7,2.7 3.7,6c0,3.3 -1.7,6 -3.7,6z"/><path d="M245.94895,147.45002c-1.4,0 -2.6,-1.9 -2.6,-4.1c0,-2.2 1.2,-4.1 2.6,-4.1c1.4,0 2.6,1.8 2.6,4.1c0,2.3 -1.1,4.1 -2.6,4.1z"/><path d="M246.14895,146.25002c1.1,0.1 2.9,2.3 2.7,4.9c-0.2,2.6 -3.7,4.5 -3.7,4.5c0,0 -2.7,-2.3 -2.4,-4.9c0.3,-2.6 2.3,-4.6 3.4,-4.5z"/></g></g></g></svg>