<svg version="1.1" xmlns="http://www.w3.org/2000/svg" xmlns:xlink="http://www.w3.org/1999/xlink" width="156.81641" height="256.75644" viewBox="0,0,156.81641,256.75644"><g transform="translate(-156.2758,-52.09364)"><g data-paper-data="{&quot;isPaintingLayer&quot;:true}" fill-rule="nonzero" stroke-linejoin="miter" stroke-miterlimit="10" stroke-dasharray="" stroke-dashoffset="0" style="mix-blend-mode: normal"><g data-paper-data="{&quot;origPos&quot;:null}" stroke="none" stroke-width="1" stroke-linecap="butt"><path d="M241.2,308.84998l0.8,-9.6999l13.7,0.6l8.7,2.3l6.9,6.8z" fill="#7489aa"/><path d="M240.3,300.54998l-4.2,-50.4l-8.2,-62h34.1l1.8,62.3l-1.2,50.1z" fill="#94c0de"/></g><g stroke="none" stroke-width="1" stroke-linecap="butt"><path d="M200.6,308.84998l0.8,-9.6999l13.7,0.6l8.7,2.3l6.9,6.8z" fill="#7489aa"/><path d="M199.9,300.54998l0.6,-52.3l1.8,-60.1h33l-8.4,61.8l-6.3,50.6z" fill="#94c0de"/></g><g data-paper-data="{&quot;index&quot;:null}" stroke="none" stroke-width="1" stroke-linecap="butt"><path d="M265.97009,166.9957c0,0 -29.54466,-40.53533 -14.87596,-46.93917c8.01172,-3.71783 29.75962,38.63696 29.75962,38.63696c0,0 -4.30053,5.27596 -7.70446,7.14502c-3.40387,1.86914 -7.1792,1.15719 -7.1792,1.15719z" fill="#c5945b"/><path d="M251.98636,154.092c0,0 -12.25815,-32.8414 -0.90772,-38.50423c12.90065,-6.46708 27.41697,28.38943 27.41697,28.38943z" fill="#d3c9c9"/></g><g data-paper-data="{&quot;index&quot;:null}" fill="#c5945b" stroke="none" stroke-width="1" stroke-linecap="butt"><path d="M268.9798,167.42495c0,0 -2.96191,-4.76204 -4.46485,-7.70163c-2.03322,-3.90333 0.21383,-9.36234 0.21383,-9.36234l28.58642,-2.60033l1.88022,10.26477z" data-paper-data="{&quot;origPos&quot;:null}"/><path d="M312.62563,149.04565c0,0 -2.73334,5.61238 -6.23805,7.54034c-3.76756,2.07255 -11.9997,1.00861 -11.9997,1.00861l-4.25458,-6.90424c0,0 1.47139,-8.11388 7.29806,-10.17783c2.60667,-0.86328 8.50358,-1.13976 8.50358,-1.13976c0,0 3.02309,1.76095 2.52372,2.72045c-0.49937,0.9595 -6.36116,2.12972 -5.37532,3.29939c1.31436,1.55961 8.49462,-3.64574 9.5068,-1.80577c1.10858,2.01521 0.03549,5.45882 0.03549,5.45882z" data-paper-data="{&quot;origPos&quot;:null}"/></g><path d="M198.4,193.44998l0.9,-75.5999c0,0 16.2,-8.6 31.5,-8.8c15.3,-0.2 26.8,4.9 29.7,6.2c2.7,1.2 4.4,80.4 4.4,80.4c0,0 -19.7,2.8 -33.3,2.7c-13.9,-0.2 -33.2,-4.9001 -33.2,-4.9001z" data-paper-data="{&quot;origPos&quot;:null}" fill="#e6dbdb" stroke="none" stroke-width="1" stroke-linecap="butt"/><g data-paper-data="{&quot;origPos&quot;:null,&quot;index&quot;:null}" stroke="none" stroke-width="1" stroke-linecap="butt"><path d="M188.31993,169.28199c-2.68295,-1.94468 -5.74457,-6.34428 -5.74457,-6.34428c0,0 16.05264,-53.95658 27.41668,-44.16532c14.91266,11.96087 -13.69117,54.29302 -13.69117,54.29302c0,0 -5.29798,-1.83873 -7.981,-3.78334z" fill="#c5945b"/><path d="M185.80298,144.64703c0,0 8.36298,-38.76593 26.66306,-25.97112c7.73801,5.42984 -0.94401,35.28738 -0.94401,35.28738z" fill="#d3c9c9"/></g><path d="M254,80.05008c0.2,1.7 -2.5,2.5 -2.2,4.2c0.3,1.4 0.4,2.9 0,4.2c-0.5,1.3 -1.3,1.6 -1.7,2.9c-0.3,0.9 0.3,1.9 -0.3,2.6c-3.1,3.2 -25.4,12.4 -25.4,12.4c0,0 -4,-1 -5.9,-2c-0.9,-0.5 0.2,-1.9 -0.8,-2.2c-1.9,-0.5 -4.1,1.2 -5.6,0c-1.5,-1.2 0.1,-1.8 -0.7,-3.6c-1.1,-2.3 -2.1,1.5 -3.5,-2.8c-0.6,-2 -0.1,-1.6 -0.8,-3.6c-1.2,-3.4 -3.2,-5.4 -0.5,-7.7c1.2,-1 -2.9,0.8 -2.3,-3.7c0.1,-1.1 1.1,-2.2 1.3,-3.2c0.3,-1.2 -1.6,0.1 -0.7,-3.8c0.2,-1 2.3,-1 2.1,-2c-0.3,-1.4 -1.1,-3.1 -0.2,-4.2c1.1,-1.2 1.9,-1 2.6,-2.5c0.9,-1.8 -1,-0.8 0.3,-2.4c0.8,-1 2.3,-2.9 3.4,-2.2c1.5,0.9 -0.7,-1.2 0.5,-2.5c2.1,-2.3 5.2,-2.4 8.3,-2.4c0,0 2.7,-3.1 4.6,-3.4c2.8,-0.5 2.3,2.5 4.7,2c1.2,-0.2 8.2,-0.7 9.2,2.9c0.2,0.9 1,1.2 1.9,1.5c1.9,0.8 3.6,0.6 4.5,2.5c0.5757,1.2793 1.946,1.0627 2.8591,2.1279c0.9372,1.0933 -0.7932,2.5518 0.1898,3.6042c1.4086,1.5079 2.4315,0.8753 2.9742,2.8661c0.3064,1.1238 -0.8402,1.7868 -0.801,2.951c0.0426,1.2646 1.1543,0.9385 1.572,2.1329c0.2812,0.8043 -0.3746,2.2696 -0.2941,3.1179z" data-paper-data="{&quot;origPos&quot;:null}" fill="#21150b" stroke="none" stroke-width="1" stroke-linecap="butt"/><g fill="#c5945b" stroke="none" stroke-width="1" stroke-linecap="butt"><path d="M222.6,99.24998l16.3,3.4l-0.1,9.1c0,0 5.2,0.9 5.2,3.7c-0.1,4.5 -20.3,6.9 -24.5,0c-1.6,-3.4 2.2,-4.6 2.2,-4.6z" data-paper-data="{&quot;origPos&quot;:null}"/><path d="M218,88.14998c0.8,2.4 0.3,4.7 -1,5.1c-1.4,0.5 -3.2,-1 -4,-3.4c-0.8,-2.4 -0.3,-4.7 1,-5.1c1.4,-0.4 3.2,1.1 4,3.4z" data-paper-data="{&quot;origPos&quot;:null}"/><path d="M249.5,85.94998c0,12.8 -7.9,19.6 -14.7,19.9c-11.8,0.2 -19.4,-9.5 -19.4,-22.3c0,-12.8 2.2,-22.4 17.2,-23.1c11.4,-0.6 18.9318,11.5 16.9318,25.2z" data-paper-data="{&quot;origPos&quot;:null}"/></g><path d="M237.9,98.3529c0,0.37511 -2,1.17893 -3.7,1.17893c-1.8,0 -3.5,-1.01816 -3.5,-1.44687c0,-0.4287 2.2,0 4,0c1.7,0 3.2,-0.16076 3.2,0.26794z" fill="#000000" stroke="none" stroke-width="1" stroke-linecap="butt"/><path d="M237.3,91.24998c0,0 -0.3,1 -2.2,1c-1.4,0 -2.2,-0.8 -2.2,-0.8" fill="none" stroke="#000000" stroke-width="1.2775" stroke-linecap="round"/><g data-paper-data="{&quot;index&quot;:null}" fill="#c5945b" stroke="none" stroke-width="1" stroke-linecap="butt"><path d="M174.15215,147.27431l26.37646,9.19415c0,0 1.51442,6.12834 -0.85941,9.74841c-1.74671,2.5921 -5.01565,6.8821 -5.01565,6.8821l-23.37381,-15.63108z"/><path d="M156.39916,145.87027c0,0 -0.57741,-3.98078 0.76623,-5.9919c1.07523,-1.92195 7.50855,4.6585 8.89656,3.00519c1.02975,-1.16173 -4.46902,-3.13495 -4.82572,-4.20861c-0.3567,-1.07367 2.73076,-2.77001 2.73076,-2.77001c0,0 5.72349,0.85541 8.09242,2.15468c5.27427,2.86742 5.89115,12.12536 5.89115,12.12536l-4.83707,7.19533c0,0 -7.96067,0.2604 -11.40149,-2.47103c-3.21744,-2.5076 -5.31293,-9.03905 -5.31293,-9.03905z"/></g><g><path d="M223.8,79.44998c0,0 2.9,-0.8 4.4,-0.8c1.7,-0.1 3.7,0.8 3.7,0.8" fill="none" stroke="#000000" stroke-width="1.2775" stroke-linecap="round"/><g><path d="M223.7,83.74998c0,0 2.2,-1.9 4.5,-1.7c2.5,0.2 2.9,1.5 2.9,1.5" fill="none" stroke="#000000" stroke-width="1.2775" stroke-linecap="round"/><path d="M227,84.55008c0,-1.2 0.9,-2.2 2.1,-2.2c1.2,0 2.1,1 2.1,2.2c0,1.2 -0.9,2.2 -2.1,2.2c-1.1,0 -2.1,-1 -2.1,-2.2z" fill="#000000" stroke="none" stroke-width="1" stroke-linecap="butt"/></g></g><g><path d="M239.2,79.35008c0,0 2.3,-0.8 4,-0.8c1.5,0.0999 3.2,0.5 3.2,0.5" fill="none" stroke="#000000" stroke-width="1.2775" stroke-linecap="round"/><g><path d="M239.2,83.55008c0,0 0.5,-1.3 2.9,-1.5c2.3,-0.2 4.5,0.7 4.5,0.7" fill="none" stroke="#000000" stroke-width="1.2775" stroke-linecap="round"/><path d="M244.1,86.44998c-1.2,0 -2.1,-1 -2.1,-2.2c0,-1.2 0.9,-2.2 2.1,-2.2c1.2,0 2.1,1 2.1,2.2c0.1,1.2 -0.9,2.2 -2.1,2.2z" fill="#000000" stroke="none" stroke-width="1" stroke-linecap="butt"/></g></g><g data-paper-data="{&quot;origPos&quot;:null}" fill="#21150b" stroke="none" stroke-width="1" stroke-linecap="butt"><path d="M251.9,67.05008c0.3,1.3 2.9,1.8 3.2,3.0999c0.5,1.8 -0.9,1.6 -1.9,3.2001c-0.5,0.7999 0.7,2.4 0.8,3.2999c0.1,1 -2.5,1.2001 -3.3,1.8c-2.3,1.7 -2.2,-1.7 -3.5,-2.4c-1.4,-0.8 -2.6,0.1 -3.4,-1.3c-0.9,-1.6 0.1,-2.3 -0.4,-4.1c-0.7,-2.5 -2.7,-0.7999 -4.3,-2.7999c-0.8,-1.1 0.3,-2.5 -0.5,-3.7001c-0.8,-1.4 -2.7,-1.5 -2.1,-3c0.5,-1.1 0.5,-1.6 0.3,-2.7999c-0.1,-0.4 1.2,-1.6001 1.7,-1.7001c0,0 0.6,0.8 1.9,0.5c1.2,-0.2999 2.1,-1.2 3.3,-0.9c1.7,0.4 1,1.9 2.3,3c1.4,1.3 3.5,1.2001 4.8,2.7001c1.3,1.6 -0.6,-1.2001 1.1,5.1z" data-paper-data="{&quot;origPos&quot;:null}"/><path d="M222.6,58.64998c2,-0.7 -0.7,-2.6 4,-2.9c1.8,-0.1 2.8,2.9 4.5,2.4c2.2,-0.7 1.6,-2 3.8,-1.5c1.7673,0.3273 2.7836,-0.6069 4.5358,-0.2068c1.1753,0.2685 1.2387,1.3311 2.1838,2.0796c0.8898,0.7047 1.8959,0.4592 2.2804,1.5272c0.1996,0.5418 -0.7377,1.8639 -0.6369,2.4324c0.3024,1.7056 2.3337,4.2692 -0.0631,5.4676c-2.7,1.2 -2.7,2.8 -3.8,3.2c-1.9281,0.4821 -2.4977,-1.1376 -4.3,-0.3c-1.7653,0.8205 0.8,2.8 -2.2,3.8c-1.3,0.7 -2.6,-1.4 -4.6,-0.1c-1.2577,0.8175 -0.4,3.3 -1.6,4.1c-2.7,1.8 -3.3,-1.5 -4.7,-0.7c-0.737,0.3861 -0.9394,2.2287 -1.6212,2.7056c-1.1775,0.8238 -1.9566,-0.2033 -3.0788,0.6944c-1.5,1.2 -0.8,4.2 -1.7,3.8c-4.2,-1.9 -2.7,-2.7 -3.4,-4.6c-0.3,-0.9 -1.7,-1.6 -1.8,-2.5c-0.2,-1.2 0.4,-1.2 0.6,-2.4c0.1,-0.8 -1.5,-1.7 -1.1,-3.9c0.2,-1.1 1.7,-1.4 1.2,-2.3c-0.4,-0.8 -0.6,-2.1 -0.1,-2.8c1.5,-2 2.8,0.4 2,-0.6c-0.8,-1.1 0.5,-1.9 1.3,-3c0.5,-0.6 2,-0.3 2.5,-0.9c0.9,-1.4 0.6,-2.6 2.1,-3.4c3.2,-1.9 3.7,-0.1 3.7,-0.1z" data-paper-data="{&quot;origPos&quot;:null}"/></g></g></g></svg>