<svg version="1.1" xmlns="http://www.w3.org/2000/svg" xmlns:xlink="http://www.w3.org/1999/xlink" width="115.1491" height="262.72954" viewBox="0,0,115.1491,262.72954"><g transform="translate(-174.21172,-46.12054)"><g data-paper-data="{&quot;isPaintingLayer&quot;:true}" fill-rule="nonzero" stroke-linejoin="miter" stroke-miterlimit="10" stroke-dasharray="" stroke-dashoffset="0" style="mix-blend-mode: normal"><g data-paper-data="{&quot;origPos&quot;:null}" stroke="none" stroke-width="1" stroke-linecap="butt"><path d="M241.2,308.84998l0.8,-9.6999l13.7,0.6l8.7,2.3l6.9,6.8z" fill="#7489aa"/><path d="M240.3,300.54998l-4.2,-50.4l-8.2,-62h34.1l1.8,62.3l-1.2,50.1z" fill="#94c0de"/></g><g stroke="none" stroke-width="1" stroke-linecap="butt"><path d="M200.6,308.84998l0.8,-9.6999l13.7,0.6l8.7,2.3l6.9,6.8z" fill="#7489aa"/><path d="M199.9,300.54998l0.6,-52.3l1.8,-60.1h33l-8.4,61.8l-6.3,50.6z" fill="#94c0de"/></g><g data-paper-data="{&quot;index&quot;:null}" stroke="none" stroke-width="1" stroke-linecap="butt"><path d="M289.2587,93.87757c0,0 -12.64289,48.54026 -26.89111,41.24861c-7.95243,-3.84303 11.03796,-47.50382 11.03796,-47.50382c0,0 6.80661,-0.01545 10.40931,1.43394c3.60271,1.44929 5.44383,4.82128 5.44383,4.82128z" fill="#c5945b"/><path d="M288.13501,112.87197c0,0 -17.64245,30.29131 -29.21501,25.09747c-13.17697,-5.88367 4.59384,-39.19881 4.59384,-39.19881z" fill="#d3c9c9"/></g><g data-paper-data="{&quot;index&quot;:null}" fill="#c5945b" stroke="none" stroke-width="1" stroke-linecap="butt"><path d="M289.36083,93.44005c0,0 -5.20988,2.07535 -8.36851,3.03613c-4.2008,1.31272 -9.17777,-1.86215 -9.17777,-1.86215l2.48356,-28.5968l10.43547,-0.03986z" data-paper-data="{&quot;origPos&quot;:null}"/><path d="M273.59017,46.30828c2.17917,-0.73566 5.37946,0.9281 5.37946,0.9281c0,0 5.04215,3.68058 6.32158,7.47045c1.37539,4.0741 -1.12415,11.98943 -1.12415,11.98943l-7.54652,2.96984c0,0 -7.72704,-2.87974 -8.73071,-8.97913c-0.38989,-2.71808 0.37828,-8.57128 0.37828,-8.57128c0,0 2.26666,-2.66502 3.12301,-2.00421c0.85635,0.6608 0.9741,6.6371 2.29934,5.87307c1.76702,-1.01861 -2.08997,-9.00455 -0.1003,-9.67625z" data-paper-data="{&quot;origPos&quot;:null}"/></g><path d="M198.4,193.44998l0.9,-75.5999c0,0 16.2,-8.6 31.5,-8.8c15.3,-0.2 26.8,4.9 29.7,6.2c2.7,1.2 4.4,80.4 4.4,80.4c0,0 -19.7,2.8 -33.3,2.7c-13.9,-0.2 -33.2,-4.9001 -33.2,-4.9001z" data-paper-data="{&quot;origPos&quot;:null}" fill="#e6dbdb" stroke="none" stroke-width="1" stroke-linecap="butt"/><g data-paper-data="{&quot;index&quot;:null}" stroke="none" stroke-width="1" stroke-linecap="butt"><path d="M185.70016,91.50101c3.30555,-0.23088 8.47722,1.17765 8.47722,1.17765c0,0 22.32349,51.67845 7.32468,51.46454c-19.11256,0.40015 -24.35026,-50.42068 -24.35026,-50.42068c0,0 5.24281,-1.99063 8.54836,-2.22161z" fill="#c5945b"/><path d="M203.44256,108.77596c0,0 18.46968,35.09427 -3.77568,37.0292c-9.41887,0.80308 -21.9259,-27.66487 -21.9259,-27.66487z" fill="#d3c9c9"/></g><path d="M254,80.05008c0.2,1.7 -2.5,2.5 -2.2,4.2c0.3,1.4 0.4,2.9 0,4.2c-0.5,1.3 -1.3,1.6 -1.7,2.9c-0.3,0.9 0.3,1.9 -0.3,2.6c-3.1,3.2 -25.4,12.4 -25.4,12.4c0,0 -4,-1 -5.9,-2c-0.9,-0.5 0.2,-1.9 -0.8,-2.2c-1.9,-0.5 -4.1,1.2 -5.6,0c-1.5,-1.2 0.1,-1.8 -0.7,-3.6c-1.1,-2.3 -2.1,1.5 -3.5,-2.8c-0.6,-2 -0.1,-1.6 -0.8,-3.6c-1.2,-3.4 -3.2,-5.4 -0.5,-7.7c1.2,-1 -2.9,0.8 -2.3,-3.7c0.1,-1.1 1.1,-2.2 1.3,-3.2c0.3,-1.2 -1.6,0.1 -0.7,-3.8c0.2,-1 2.3,-1 2.1,-2c-0.3,-1.4 -1.1,-3.1 -0.2,-4.2c1.1,-1.2 1.9,-1 2.6,-2.5c0.9,-1.8 -1,-0.8 0.3,-2.4c0.8,-1 2.3,-2.9 3.4,-2.2c1.5,0.9 -0.7,-1.2 0.5,-2.5c2.1,-2.3 5.2,-2.4 8.3,-2.4c0,0 2.7,-3.1 4.6,-3.4c2.8,-0.5 2.3,2.5 4.7,2c1.2,-0.2 8.2,-0.7 9.2,2.9c0.2,0.9 1,1.2 1.9,1.5c1.9,0.8 3.6,0.6 4.5,2.5c0.5757,1.2793 1.946,1.0627 2.8591,2.1279c0.9372,1.0933 -0.7932,2.5518 0.1898,3.6042c1.4086,1.5079 2.4315,0.8753 2.9742,2.8661c0.3064,1.1238 -0.8402,1.7868 -0.801,2.951c0.0426,1.2646 1.1543,0.9385 1.572,2.1329c0.2812,0.8043 -0.3746,2.2696 -0.2941,3.1179z" data-paper-data="{&quot;origPos&quot;:null}" fill="#21150b" stroke="none" stroke-width="1" stroke-linecap="butt"/><g fill="#c5945b" stroke="none" stroke-width="1" stroke-linecap="butt"><path d="M222.6,99.24998l16.3,3.4l-0.1,9.1c0,0 5.2,0.9 5.2,3.7c-0.1,4.5 -20.3,6.9 -24.5,0c-1.6,-3.4 2.2,-4.6 2.2,-4.6z" data-paper-data="{&quot;origPos&quot;:null}"/><path d="M218,88.14998c0.8,2.4 0.3,4.7 -1,5.1c-1.4,0.5 -3.2,-1 -4,-3.4c-0.8,-2.4 -0.3,-4.7 1,-5.1c1.4,-0.4 3.2,1.1 4,3.4z" data-paper-data="{&quot;origPos&quot;:null}"/><path d="M249.5,85.94998c0,12.8 -7.9,19.6 -14.7,19.9c-11.8,0.2 -19.4,-9.5 -19.4,-22.3c0,-12.8 2.2,-22.4 17.2,-23.1c11.4,-0.6 18.9318,11.5 16.9318,25.2z" data-paper-data="{&quot;origPos&quot;:null}"/></g><path d="M237.9,97.19715c0,0.92894 -2,2.91947 -3.7,2.91947c-1.8,0 -3.5,-2.52135 -3.5,-3.583c0,-1.06162 2.2,0 4,0c1.7,0 3.2,-0.39811 3.2,0.66351z" fill="#000000" stroke="none" stroke-width="1" stroke-linecap="butt"/><path d="M237.3,91.24998c0,0 -0.3,1 -2.2,1c-1.4,0 -2.2,-0.8 -2.2,-0.8" fill="none" stroke="#000000" stroke-width="1.2775" stroke-linecap="round"/><g data-paper-data="{&quot;index&quot;:null}" fill="#c5945b" stroke="none" stroke-width="1" stroke-linecap="butt"><path d="M187.50955,66.59506l7.09798,27.01608c0,0 -4.23883,4.67784 -8.5675,4.72947c-3.1257,-0.00199 -8.50989,-0.31896 -8.50989,-0.31896l-0.08126,-28.11866z"/><path d="M178.763,51.08255c0,0 2.98025,-2.7015 5.39892,-2.70955c2.19483,-0.18096 0.32709,8.83023 2.47366,9.05875c1.53872,0.20573 0.10586,-5.45791 0.79748,-6.35327c0.69162,-0.89536 3.82268,0.71908 3.82268,0.71908c0,0 2.48571,5.22601 2.73034,7.91677c0.56566,5.97663 -6.77072,11.65707 -6.77072,11.65707l-8.67006,0.00407c0,0 -4.66044,-6.45912 -4.31532,-10.83873c0.28413,-4.06931 4.533,-9.4543 4.533,-9.4543z"/></g><g><path d="M223.8,79.44998c0,0 2.9,-0.8 4.4,-0.8c1.7,-0.1 3.7,0.8 3.7,0.8" fill="none" stroke="#000000" stroke-width="1.2775" stroke-linecap="round"/><g><path d="M223.7,83.74998c0,0 2.2,-1.9 4.5,-1.7c2.5,0.2 2.9,1.5 2.9,1.5" fill="none" stroke="#000000" stroke-width="1.2775" stroke-linecap="round"/><path d="M227,84.55008c0,-1.2 0.9,-2.2 2.1,-2.2c1.2,0 2.1,1 2.1,2.2c0,1.2 -0.9,2.2 -2.1,2.2c-1.1,0 -2.1,-1 -2.1,-2.2z" fill="#000000" stroke="none" stroke-width="1" stroke-linecap="butt"/></g></g><g><path d="M239.2,79.35008c0,0 2.3,-0.8 4,-0.8c1.5,0.0999 3.2,0.5 3.2,0.5" fill="none" stroke="#000000" stroke-width="1.2775" stroke-linecap="round"/><g><path d="M239.2,83.55008c0,0 0.5,-1.3 2.9,-1.5c2.3,-0.2 4.5,0.7 4.5,0.7" fill="none" stroke="#000000" stroke-width="1.2775" stroke-linecap="round"/><path d="M244.1,86.44998c-1.2,0 -2.1,-1 -2.1,-2.2c0,-1.2 0.9,-2.2 2.1,-2.2c1.2,0 2.1,1 2.1,2.2c0.1,1.2 -0.9,2.2 -2.1,2.2z" fill="#000000" stroke="none" stroke-width="1" stroke-linecap="butt"/></g></g><g data-paper-data="{&quot;origPos&quot;:null}" fill="#21150b" stroke="none" stroke-width="1" stroke-linecap="butt"><path d="M251.9,67.05008c0.3,1.3 2.9,1.8 3.2,3.0999c0.5,1.8 -0.9,1.6 -1.9,3.2001c-0.5,0.7999 0.7,2.4 0.8,3.2999c0.1,1 -2.5,1.2001 -3.3,1.8c-2.3,1.7 -2.2,-1.7 -3.5,-2.4c-1.4,-0.8 -2.6,0.1 -3.4,-1.3c-0.9,-1.6 0.1,-2.3 -0.4,-4.1c-0.7,-2.5 -2.7,-0.7999 -4.3,-2.7999c-0.8,-1.1 0.3,-2.5 -0.5,-3.7001c-0.8,-1.4 -2.7,-1.5 -2.1,-3c0.5,-1.1 0.5,-1.6 0.3,-2.7999c-0.1,-0.4 1.2,-1.6001 1.7,-1.7001c0,0 0.6,0.8 1.9,0.5c1.2,-0.2999 2.1,-1.2 3.3,-0.9c1.7,0.4 1,1.9 2.3,3c1.4,1.3 3.5,1.2001 4.8,2.7001c1.3,1.6 -0.6,-1.2001 1.1,5.1z" data-paper-data="{&quot;origPos&quot;:null}"/><path d="M222.6,58.64998c2,-0.7 -0.7,-2.6 4,-2.9c1.8,-0.1 2.8,2.9 4.5,2.4c2.2,-0.7 1.6,-2 3.8,-1.5c1.7673,0.3273 2.7836,-0.6069 4.5358,-0.2068c1.1753,0.2685 1.2387,1.3311 2.1838,2.0796c0.8898,0.7047 1.8959,0.4592 2.2804,1.5272c0.1996,0.5418 -0.7377,1.8639 -0.6369,2.4324c0.3024,1.7056 2.3337,4.2692 -0.0631,5.4676c-2.7,1.2 -2.7,2.8 -3.8,3.2c-1.9281,0.4821 -2.4977,-1.1376 -4.3,-0.3c-1.7653,0.8205 0.8,2.8 -2.2,3.8c-1.3,0.7 -2.6,-1.4 -4.6,-0.1c-1.2577,0.8175 -0.4,3.3 -1.6,4.1c-2.7,1.8 -3.3,-1.5 -4.7,-0.7c-0.737,0.3861 -0.9394,2.2287 -1.6212,2.7056c-1.1775,0.8238 -1.9566,-0.2033 -3.0788,0.6944c-1.5,1.2 -0.8,4.2 -1.7,3.8c-4.2,-1.9 -2.7,-2.7 -3.4,-4.6c-0.3,-0.9 -1.7,-1.6 -1.8,-2.5c-0.2,-1.2 0.4,-1.2 0.6,-2.4c0.1,-0.8 -1.5,-1.7 -1.1,-3.9c0.2,-1.1 1.7,-1.4 1.2,-2.3c-0.4,-0.8 -0.6,-2.1 -0.1,-2.8c1.5,-2 2.8,0.4 2,-0.6c-0.8,-1.1 0.5,-1.9 1.3,-3c0.5,-0.6 2,-0.3 2.5,-0.9c0.9,-1.4 0.6,-2.6 2.1,-3.4c3.2,-1.9 3.7,-0.1 3.7,-0.1z" data-paper-data="{&quot;origPos&quot;:null}"/></g></g></g></svg>