<svg version="1.1" xmlns="http://www.w3.org/2000/svg" xmlns:xlink="http://www.w3.org/1999/xlink" width="88.60399" height="256.75644" viewBox="0,0,88.60399,256.75644"><g transform="translate(-195.22931,-52.09364)"><g data-paper-data="{&quot;isPaintingLayer&quot;:true}" fill-rule="nonzero" stroke-linejoin="miter" stroke-miterlimit="10" stroke-dasharray="" stroke-dashoffset="0" style="mix-blend-mode: normal"><g data-paper-data="{&quot;origPos&quot;:null}" stroke="none" stroke-width="1" stroke-linecap="butt"><path d="M241.2,308.84999l0.8,-9.6999l13.7,0.6l8.7,2.3l6.9,6.8z" fill="#7489aa"/><path d="M240.3,300.54999l-4.2,-50.4l-8.2,-62h34.1l1.8,62.3l-1.2,50.1z" fill="#94c0de"/></g><g stroke="none" stroke-width="1" stroke-linecap="butt"><path d="M200.6,308.84999l0.8,-9.6999l13.7,0.6l8.7,2.3l6.9,6.8z" fill="#7489aa"/><path d="M199.9,300.54999l0.6,-52.3l1.8,-60.1h33l-8.4,61.8l-6.3,50.6z" fill="#94c0de"/></g><g stroke="none" stroke-width="1" stroke-linecap="butt"><path d="M268.8,167.44999c-3.8,0.8001 -10.5,-0.4 -10.5,-0.4c0,0 -11.1,-46.3 -2.6,-48.7c15.3,-4.7 19.3,45.3 19.3,45.3c0,0 -2.4,3 -6.2,3.8z" fill="#c5945b"/><path d="M250.5,154.34999c0,0 -11.7,-35.9 2.3,-39.4c12.3,-3.1 24.4,29.8 24.4,29.8z" fill="#d3c9c9"/></g><g fill="#c5945b" stroke="none" stroke-width="1" stroke-linecap="butt"><path d="M279.7,190.54999l-9.9,3.3001l-11.5,-26.3001c0,0 3.7,-4.6 8.1,-4.6999c3.3,-0.1 8.9,0.1999 8.9,0.1999z" data-paper-data="{&quot;origPos&quot;:null}"/><path d="M275.4333,212.75009c-2.1,0 -1,-8.8001 -3,-9.2c-1.5,-0.3 0.3,5.4 -0.3,6.3c-0.6,0.9 -3.6,-0.9 -3.6,-0.9c0,0 -2.6,-5.3 -3.1,-8c-1,-6.1 5.4,-11.3 5.4,-11.3l8.1,0.4c0,0 4.9,6.7 4.9,11c0,4 -3.6,9.1 -3.6,9.1c0,0 -2.5,2.6 -4.8,2.6z" data-paper-data="{&quot;origPos&quot;:null}"/></g><path d="M198.4,193.44999l0.9,-75.5999c0,0 16.2,-8.6 31.5,-8.8c15.3,-0.2 26.8,4.9 29.7,6.2c2.7,1.2 4.4,80.4 4.4,80.4c0,0 -19.7,2.8 -33.3,2.7c-13.9,-0.2 -33.2,-4.9001 -33.2,-4.9001z" data-paper-data="{&quot;origPos&quot;:null}" fill="#e6dbdb" stroke="none" stroke-width="1" stroke-linecap="butt"/><g stroke="none" stroke-width="1" stroke-linecap="butt"><path d="M249.1214,143.86498c-0.32991,3.29715 -2.47672,8.47796 -2.47672,8.47796c0,0 -50.6411,-6.7579 -49.66853,-25.84989c0.23554,-14.99848 51.222,8.86323 51.222,8.86323c0,0 1.25296,5.21154 0.92315,8.50869z" fill="#c5945b"/><path d="M222.25553,151.02249c0,0 -28.08047,-13.3543 -26.99557,-22.74488c2.60052,-22.17741 37.12569,-2.66461 37.12569,-2.66461z" fill="#d3c9c9"/></g><path d="M254,80.05009c0.2,1.7 -2.5,2.5 -2.2,4.2c0.3,1.4 0.4,2.9 0,4.2c-0.5,1.3 -1.3,1.6 -1.7,2.9c-0.3,0.9 0.3,1.9 -0.3,2.6c-3.1,3.2 -25.4,12.4 -25.4,12.4c0,0 -4,-1 -5.9,-2c-0.9,-0.5 0.2,-1.9 -0.8,-2.2c-1.9,-0.5 -4.1,1.2 -5.6,0c-1.5,-1.2 0.1,-1.8 -0.7,-3.6c-1.1,-2.3 -2.1,1.5 -3.5,-2.8c-0.6,-2 -0.1,-1.6 -0.8,-3.6c-1.2,-3.4 -3.2,-5.4 -0.5,-7.7c1.2,-1 -2.9,0.8 -2.3,-3.7c0.1,-1.1 1.1,-2.2 1.3,-3.2c0.3,-1.2 -1.6,0.1 -0.7,-3.8c0.2,-1 2.3,-1 2.1,-2c-0.3,-1.4 -1.1,-3.1 -0.2,-4.2c1.1,-1.2 1.9,-1 2.6,-2.5c0.9,-1.8 -1,-0.8 0.3,-2.4c0.8,-1 2.3,-2.9 3.4,-2.2c1.5,0.9 -0.7,-1.2 0.5,-2.5c2.1,-2.3 5.2,-2.4 8.3,-2.4c0,0 2.7,-3.1 4.6,-3.4c2.8,-0.5 2.3,2.5 4.7,2c1.2,-0.2 8.2,-0.7 9.2,2.9c0.2,0.9 1,1.2 1.9,1.5c1.9,0.8 3.6,0.6 4.5,2.5c0.5757,1.2793 1.946,1.0627 2.8591,2.1279c0.9372,1.0933 -0.7932,2.5518 0.1898,3.6042c1.4086,1.5079 2.4315,0.8753 2.9742,2.8661c0.3064,1.1238 -0.8402,1.7868 -0.801,2.951c0.0426,1.2646 1.1543,0.9385 1.572,2.1329c0.2812,0.8043 -0.3746,2.2696 -0.2941,3.1179z" data-paper-data="{&quot;origPos&quot;:null}" fill="#21150b" stroke="none" stroke-width="1" stroke-linecap="butt"/><g fill="#c5945b" stroke="none" stroke-width="1" stroke-linecap="butt"><path d="M222.6,99.24999l16.3,3.4l-0.1,9.1c0,0 5.2,0.9 5.2,3.7c-0.1,4.5 -20.3,6.9 -24.5,0c-1.6,-3.4 2.2,-4.6 2.2,-4.6z" data-paper-data="{&quot;origPos&quot;:null}"/><path d="M218,88.14999c0.8,2.4 0.3,4.7 -1,5.1c-1.4,0.5 -3.2,-1 -4,-3.4c-0.8,-2.4 -0.3,-4.7 1,-5.1c1.4,-0.4 3.2,1.1 4,3.4z" data-paper-data="{&quot;origPos&quot;:null}"/><path d="M249.5,85.94999c0,12.8 -7.9,19.6 -14.7,19.9c-11.8,0.2 -19.4,-9.5 -19.4,-22.3c0,-12.8 2.2,-22.4 17.2,-23.1c11.4,-0.6 18.9318,11.5 16.9318,25.2z" data-paper-data="{&quot;origPos&quot;:null}"/></g><path d="M237.9,98.74999c0,0.7 -2,2.2 -3.7,2.2c-1.8,0 -3.5,-1.9 -3.5,-2.7c0,-0.8 2.2,0 4,0c1.7,0 3.2,-0.3 3.2,0.5z" fill="#000000" stroke="none" stroke-width="1" stroke-linecap="butt"/><path d="M237.3,91.24999c0,0 -0.3,1 -2.2,1c-1.4,0 -2.2,-0.8 -2.2,-0.8" fill="none" stroke="#000000" stroke-width="1.2775" stroke-linecap="round"/><g fill="#c5945b" stroke="#000000" stroke-width="0.5" stroke-linecap="butt"><path d="M248.07479,122.33704l5.7428,27.52609c0,0 -5.20188,1.42496 -8.25942,2.07412c-4.24554,0.84579 -9.36112,-2.85298 -9.36112,-2.85298l1.35015,-27.9003z"/><path d="M242.89214,104.19647c0,0 5.27181,4.3885 6.39238,8.31078c1.24448,4.21322 -1.97751,11.49737 -1.97751,11.49737l-8.483,1.79126c0,0 -8.35359,-4.03826 -9.03772,-10.00248c-0.31782,-2.68309 1.03191,-8.31055 1.03191,-8.31055c0,0 2.72893,-2.22777 3.59095,-1.49503c0.86202,0.73275 0.63293,6.57034 2.09571,6.05046c2.05273,-0.66804 -1.64039,-9.0972 0.54434,-9.37463c2.36791,-0.49293 5.84296,1.53291 5.84296,1.53291z"/></g><g><path d="M223.8,79.44999c0,0 2.9,-0.8 4.4,-0.8c1.7,-0.1 3.7,0.8 3.7,0.8" fill="none" stroke="#000000" stroke-width="1.2775" stroke-linecap="round"/><g><path d="M223.7,83.74998c0,0 2.2,-1.9 4.5,-1.7c2.5,0.2 2.9,1.5 2.9,1.5" fill="none" stroke="#000000" stroke-width="1.2775" stroke-linecap="round"/><path d="M227,84.55009c0,-1.2 0.9,-2.2 2.1,-2.2c1.2,0 2.1,1 2.1,2.2c0,1.2 -0.9,2.2 -2.1,2.2c-1.1,0 -2.1,-1 -2.1,-2.2z" fill="#000000" stroke="none" stroke-width="1" stroke-linecap="butt"/></g></g><g><path d="M239.2,79.35009c0,0 2.3,-0.8 4,-0.8c1.5,0.0999 3.2,0.5 3.2,0.5" fill="none" stroke="#000000" stroke-width="1.2775" stroke-linecap="round"/><g><path d="M239.2,83.55009c0,0 0.5,-1.3 2.9,-1.5c2.3,-0.2 4.5,0.7 4.5,0.7" fill="none" stroke="#000000" stroke-width="1.2775" stroke-linecap="round"/><path d="M244.1,86.44999c-1.2,0 -2.1,-1 -2.1,-2.2c0,-1.2 0.9,-2.2 2.1,-2.2c1.2,0 2.1,1 2.1,2.2c0.1,1.2 -0.9,2.2 -2.1,2.2z" fill="#000000" stroke="none" stroke-width="1" stroke-linecap="butt"/></g></g><g data-paper-data="{&quot;origPos&quot;:null}" fill="#21150b" stroke="none" stroke-width="1" stroke-linecap="butt"><path d="M251.9,67.05009c0.3,1.3 2.9,1.8 3.2,3.0999c0.5,1.8 -0.9,1.6 -1.9,3.2001c-0.5,0.7999 0.7,2.4 0.8,3.2999c0.1,1 -2.5,1.2001 -3.3,1.8c-2.3,1.7 -2.2,-1.7 -3.5,-2.4c-1.4,-0.8 -2.6,0.1 -3.4,-1.3c-0.9,-1.6 0.1,-2.3 -0.4,-4.1c-0.7,-2.5 -2.7,-0.7999 -4.3,-2.7999c-0.8,-1.1 0.3,-2.5 -0.5,-3.7001c-0.8,-1.4 -2.7,-1.5 -2.1,-3c0.5,-1.1 0.5,-1.6 0.3,-2.7999c-0.1,-0.4 1.2,-1.6001 1.7,-1.7001c0,0 0.6,0.8 1.9,0.5c1.2,-0.2999 2.1,-1.2 3.3,-0.9c1.7,0.4 1,1.9 2.3,3c1.4,1.3 3.5,1.2001 4.8,2.7001c1.3,1.6 -0.6,-1.2001 1.1,5.1z" data-paper-data="{&quot;origPos&quot;:null}"/><path d="M222.6,58.64999c2,-0.7 -0.7,-2.6 4,-2.9c1.8,-0.1 2.8,2.9 4.5,2.4c2.2,-0.7 1.6,-2 3.8,-1.5c1.7673,0.3273 2.7836,-0.6069 4.5358,-0.2068c1.1753,0.2685 1.2387,1.3311 2.1838,2.0796c0.8898,0.7047 1.8959,0.4592 2.2804,1.5272c0.1996,0.5418 -0.7377,1.8639 -0.6369,2.4324c0.3024,1.7056 2.3337,4.2692 -0.0631,5.4676c-2.7,1.2 -2.7,2.8 -3.8,3.2c-1.9281,0.4821 -2.4977,-1.1376 -4.3,-0.3c-1.7653,0.8205 0.8,2.8 -2.2,3.8c-1.3,0.7 -2.6,-1.4 -4.6,-0.1c-1.2577,0.8175 -0.4,3.3 -1.6,4.1c-2.7,1.8 -3.3,-1.5 -4.7,-0.7c-0.737,0.3861 -0.9394,2.2287 -1.6212,2.7056c-1.1775,0.8238 -1.9566,-0.2033 -3.0788,0.6944c-1.5,1.2 -0.8,4.2 -1.7,3.8c-4.2,-1.9 -2.7,-2.7 -3.4,-4.6c-0.3,-0.9 -1.7,-1.6 -1.8,-2.5c-0.2,-1.2 0.4,-1.2 0.6,-2.4c0.1,-0.8 -1.5,-1.7 -1.1,-3.9c0.2,-1.1 1.7,-1.4 1.2,-2.3c-0.4,-0.8 -0.6,-2.1 -0.1,-2.8c1.5,-2 2.8,0.4 2,-0.6c-0.8,-1.1 0.5,-1.9 1.3,-3c0.5,-0.6 2,-0.3 2.5,-0.9c0.9,-1.4 0.6,-2.6 2.1,-3.4c3.2,-1.9 3.7,-0.1 3.7,-0.1z" data-paper-data="{&quot;origPos&quot;:null}"/></g></g></g></svg>